<?xml version="1.0" encoding="UTF-8" standalone="no"?>
<!-- Generator: Gravit.io -->
<svg xmlns="http://www.w3.org/2000/svg" xmlns:xlink="http://www.w3.org/1999/xlink" style="isolation:isolate" viewBox="176.562 356.069 211.11 113" width="211.11pt" height="113pt">
<g>
    <g>
        <g>
            <path d=" M 212.981 372.36 L 219.564 376.16 L 226.147 379.961 L 226.147 387.563 L 226.147 395.164 L 219.564 398.965 L 212.981 402.766 L 206.398 398.965 L 199.815 395.164 L 199.815 387.563 L 199.815 379.961 L 206.398 376.16 L 212.981 372.36 L 212.981 372.36 L 212.981 372.36 Z  M 256.292 397.366 L 262.875 401.166 L 269.458 404.967 L 269.458 412.569 L 269.458 420.17 L 262.875 423.971 L 256.292 427.772 L 249.709 423.971 L 243.126 420.17 L 243.126 412.569 L 243.126 404.967 L 249.709 401.166 L 256.292 397.366 L 256.292 397.366 Z  M 183.622 387.283 L 205.52 374.64 L 227.418 361.997 L 249.316 374.64 L 271.214 387.283 L 271.214 412.569 L 271.214 437.854 L 249.316 450.497 L 227.418 463.14 L 205.52 450.497 L 183.622 437.854 L 183.622 412.569 L 183.622 387.283 L 183.622 387.283 L 183.622 387.283 Z  M 241.855 372.36 L 248.438 376.16 L 255.021 379.961 L 255.021 387.563 L 255.021 395.164 L 248.438 398.965 L 241.855 402.766 L 235.272 398.965 L 228.689 395.164 L 228.689 387.563 L 228.689 379.961 L 235.272 376.16 L 241.855 372.36 Z " fill-rule="evenodd" fill="rgb(49,79,128)"/>
            <path d=" M 298.642 379.579 L 291.621 379.579 L 291.621 372.558 L 298.642 372.558 L 298.642 379.579 Z  M 285.214 446.718 L 285.214 441.452 L 287.32 441.452 L 287.32 441.452 Q 289.339 441.452 290.524 440.092 L 290.524 440.092 L 290.524 440.092 Q 291.708 438.731 291.708 436.625 L 291.708 436.625 L 291.708 387.039 L 298.729 387.039 L 298.729 436.011 L 298.729 436.011 Q 298.729 440.925 295.921 443.822 L 295.921 443.822 L 295.921 443.822 Q 293.113 446.718 288.286 446.718 L 288.286 446.718 L 285.214 446.718 Z  M 306.628 432.676 L 306.628 427.41 L 314.088 427.41 L 314.088 427.41 Q 317.862 427.41 319.573 425.347 L 319.573 425.347 L 319.573 425.347 Q 321.285 423.285 321.285 419.95 L 321.285 419.95 L 321.285 419.95 Q 321.285 417.317 319.705 415.474 L 319.705 415.474 L 319.705 415.474 Q 318.125 413.631 314.966 411.174 L 314.966 411.174 L 314.966 411.174 Q 312.245 408.98 310.621 407.356 L 310.621 407.356 L 310.621 407.356 Q 308.998 405.732 307.813 403.319 L 307.813 403.319 L 307.813 403.319 Q 306.628 400.905 306.628 397.746 L 306.628 397.746 L 306.628 397.746 Q 306.628 393.095 309.744 390.067 L 309.744 390.067 L 309.744 390.067 Q 312.859 387.039 318.125 387.039 L 318.125 387.039 L 325.76 387.039 L 325.76 392.305 L 319.441 392.305 L 319.441 392.305 Q 313.21 392.305 313.21 398.185 L 313.21 398.185 L 313.21 398.185 Q 313.21 400.467 314.615 402.134 L 314.615 402.134 L 314.615 402.134 Q 316.019 403.802 319.003 406.083 L 319.003 406.083 L 319.003 406.083 Q 321.723 408.19 323.479 409.901 L 323.479 409.901 L 323.479 409.901 Q 325.234 411.613 326.463 414.202 L 326.463 414.202 L 326.463 414.202 Q 327.691 416.791 327.691 420.301 L 327.691 420.301 L 327.691 420.301 Q 327.691 426.532 324.4 429.604 L 324.4 429.604 L 324.4 429.604 Q 321.109 432.676 315.141 432.676 L 315.141 432.676 L 306.628 432.676 Z  M 342.611 379.579 L 335.59 379.579 L 335.59 372.558 L 342.611 372.558 L 342.611 379.579 Z  M 342.611 432.676 L 335.59 432.676 L 335.59 387.039 L 342.611 387.039 L 342.611 432.676 Z  M 356.126 432.676 L 348.754 432.676 L 361.392 409.77 L 349.632 387.039 L 356.39 387.039 L 364.639 403.187 L 372.977 387.039 L 379.735 387.039 L 367.974 409.77 L 380.612 432.676 L 373.24 432.676 L 364.639 416.001 L 356.126 432.676 Z " fill="rgb(49,79,128)"/>
        </g>
    </g>
</g>
</svg>
